<?xml version="1.0" encoding="UTF-8"?>
<svg width="22px" height="22px" viewBox="0 0 22 22" version="1.1" xmlns="http://www.w3.org/2000/svg" xmlns:xlink="http://www.w3.org/1999/xlink">
    <!-- Generator: sketchtool 57.1 (101010) - https://sketch.com -->
    <title>3F225D93-6747-4B5C-9A2D-20F168B68160</title>
    <desc>Created with sketchtool.</desc>
    <g id="Desktop" stroke="none" stroke-width="1" fill="none" fill-rule="evenodd">
        <g id="AXA_Blogoverzicht" transform="translate(-1026.000000, -355.000000)" fill="#CCCBCB">
            <g id="Ons-aanbod" transform="translate(248.000000, 187.000000)">
                <g id="Dropdown" transform="translate(569.000000, 154.000000)">
                    <g id="Icon/Search" transform="translate(208.000000, 13.000000)">
                        <path d="M9.85360002,1.6 C5.29760001,1.6 1.6,5.25519994 1.6,9.76879986 C1.6,14.2823998 5.29760001,17.9367997 9.85360002,17.9367997 C11.7656,17.9367997 13.5256,17.2935997 14.9256,16.2135998 L21.0040001,22.2215997 C21.3184001,22.5327996 21.8248001,22.5295996 22.1360001,22.2159997 C22.4456001,21.9015997 22.4424001,21.3943997 22.1288001,21.0839997 L16.092,15.1167998 C17.3472,13.6839998 18.1064,11.8151998 18.1064,9.76879986 C18.1064,5.25519994 14.4096,1.6 9.85360002,1.6 M9.85359977,3.2 C13.5303996,3.2 16.5063995,6.14319992 16.5063995,9.76879981 C16.5063995,13.3935997 13.5303996,16.3367996 9.85359977,16.3367996 C6.1759999,16.3367996 3.2,13.3935997 3.2,9.76879981 C3.2,6.14319992 6.1759999,3.2 9.85359977,3.2" id="Fill-1"></path>
                    </g>
                </g>
            </g>
        </g>
    </g>
</svg>